<svg width="29" height="29" viewBox="0 0 29 29" fill="none" xmlns="http://www.w3.org/2000/svg">
<path fill-rule="evenodd" clip-rule="evenodd" d="M1.51025 14.5002C1.51025 10.6629 4.62094 7.55225 8.45817 7.55225C11.093 7.55225 13.3836 9.01881 14.5612 11.1772H25.3748C26.5427 11.1772 27.4894 12.124 27.4894 13.2918V16.3127C27.4894 16.8132 27.0837 17.2189 26.5832 17.2189H23.8644V19.3335C23.8644 19.834 23.4587 20.2397 22.9582 20.2397H19.9373C19.4368 20.2397 19.0311 19.834 19.0311 19.3335V17.2189H14.8537C13.7959 19.7043 11.3317 21.4481 8.45817 21.4481C4.62094 21.4481 1.51025 18.3374 1.51025 14.5002ZM8.45817 12.0835C7.12348 12.0835 6.0415 13.1655 6.0415 14.5002C6.0415 15.8349 7.12348 16.9168 8.45817 16.9168C9.79286 16.9168 10.8748 15.8349 10.8748 14.5002C10.8748 13.1655 9.79286 12.0835 8.45817 12.0835Z" fill="black"/>
</svg>
